# Blender v2.79 (sub 0) OBJ File: 'bird.blend'
# www.blender.org
mtllib bird_1.mtl
o Plane
v -0.325270 0.343656 -1.892074
v 0.377389 -0.233322 -0.024079
v -1.020478 -0.128241 -0.027390
v -0.334202 0.461073 1.808376
v 0.323228 0.179957 0.115792
v 0.318980 0.169472 -0.194404
v 0.987655 0.285856 -0.003070
v 0.869344 0.429511 0.053958
v 0.860316 0.429444 -0.058853
v 0.828388 0.303413 -0.011993
v 0.196035 0.578483 0.609489
v -0.758369 0.424384 0.557784
v 0.206408 0.544887 -0.621661
v -0.792883 0.432985 -0.630125
vn 0.1097 -0.9878 0.1106
vn -0.0266 -0.3236 0.9458
vn -0.0273 -0.3927 -0.9193
vn 0.0961 -0.7526 0.6515
vn 0.3942 -0.3322 -0.8569
vn 0.3069 -0.3327 0.8917
vn -0.0982 -0.4360 0.8946
vn 0.0137 -0.3515 -0.9361
vn 0.1607 -0.9867 -0.0256
vn 0.0848 -0.7419 -0.6652
usemtl None
s off
f 1//1 13//1 14//1
f 3//2 2//2 5//2
f 3//3 6//3 2//3
f 5//4 11//4 12//4 3//4
f 2//5 6//5 9//5 10//5
f 5//6 2//6 10//6 8//6
f 8//7 10//7 7//7
f 10//8 9//8 7//8
f 12//9 11//9 4//9
f 14//10 13//10 6//10 3//10
